<svg xmlns="http://www.w3.org/2000/svg" viewBox="0 0 263 56" fill="#1877F2">
  <path d="M38.44 0C17.2 0 0 17.2 0 38.44c0 19.2 14.08 35.1 32.52 37.96V49.52H22.72V38.44h9.8v-8.5c0-9.68 5.77-15.03 14.6-15.03 2.07 0 4.16.19 6.22.38v9.61h-3.5c-3.35 0-4.41 1.57-4.41 4.12v5.42H53l-1.38 11.08h-9.22v26.88C59.84 70.11 76.88 55.76 76.88 38.44 76.88 17.2 59.68 0 38.44 0z"/>
  <path fill="#1877F2" d="M94 43V13h8.4l1 4.2h.3c1.8-2.9 4.8-4.8 9-4.8 7.8 0 13.2 6.2 13.2 15.6 0 9.6-5.7 15.6-13.5 15.6-3.9 0-6.6-1.5-8.1-3.6H104v16.4H94V43zm16-22.8c-3.8 0-6.2 2.6-6.2 7.8s2.4 7.8 6.2 7.8c3.8 0 6.1-2.6 6.1-7.8s-2.3-7.8-6.1-7.8zM129 28c0-9.6 6.9-15.6 16.3-15.6S161.5 18.4 161.5 28s-6.8 15.6-16.2 15.6S129 37.6 129 28zm24.6 0c0-5.2-3-8-8.3-8-5.3 0-8.3 2.8-8.3 8s3 8 8.3 8c5.3 0 8.3-2.8 8.3-8zM165 43V13h8.4l.8 5h.3c1.9-3.5 5.2-5.6 9.8-5.6 1.1 0 2 .1 2.9.3v8.7c-1.1-.2-2.3-.4-3.6-.4-4.8 0-7.8 2.5-7.8 7.4V43H165zM188 43l10.2-30h9.8L218.2 43h-9.4l-1.9-6.5h-9.8L195.2 43H188zm11-13.3h6.2l-3.1-10.7h-.1l-3 10.7zM222 13h8.8l4.7 17.9h.3l4.7-17.9h8.8L239 43h-7.4L222 13z"/>
</svg>
