<svg xmlns="http://www.w3.org/2000/svg" viewBox="0 0 36 36" fill="#1877F2">
  <path d="M36 18C36 8.059 27.941 0 18 0S0 8.059 0 18c0 8.99 6.584 16.436 15.188 17.791V23.203h-4.57V18h4.57v-3.965c0-4.513 2.688-7.007 6.801-7.007 1.97 0 4.033.352 4.033.352v4.43h-2.27c-2.238 0-2.937 1.39-2.937 2.816V18h4.998l-.799 5.203h-4.2v12.588C29.416 34.436 36 26.99 36 18z"/>
  <path fill="#fff" d="M25.014 23.203L25.813 18h-4.998v-3.374c0-1.426.699-2.816 2.938-2.816h2.27v-4.43s-2.062-.352-4.033-.352c-4.113 0-6.801 2.494-6.801 7.007V18h-4.57v5.203h4.57v12.588a18.24 18.24 0 005.623 0V23.203h4.202z"/>
</svg>
