<?xml version="1.0" encoding="UTF-8" standalone="no"?>
<!-- Created with Inkscape (http://www.inkscape.org/) -->

<svg
   version="1.1"
   id="svg1"
   width="1380"
   height="752"
   viewBox="0 0 1380 752"
   xmlns="http://www.w3.org/2000/svg"
   xmlns:svg="http://www.w3.org/2000/svg">
  <defs
     id="defs1" />
  <g
     id="g1">
    <path
       style="fill:#1b395a;stroke:none"
       d="m 620.60869,30.076545 c -17.42916,2.28955 -33.80896,4.96356 -50,12.34491 -12.80114,5.83594 -24.1792,12.93176 -35,21.98456 -58.36966,48.832575 -50,122.042305 -50,190.246165 v 188.99998 c 0,62.92517 -11.20068,133.95215 29.88813,187 19.58126,25.28045 49.69201,43.61456 81.11187,49.5401 21.27927,4.01318 43.44942,2.4599 65.00002,2.4599 h 245 c 43.0757,0 89.45921,4.82104 131.99999,-2.28553 47.8989,-8.00164 89.2489,-45.16528 104.9212,-90.71447 13.6812,-39.76203 7.0788,-87.51966 7.0788,-129 V 228.65218 c 0,-50.53406 3.3529,-99.33479 -28.8982,-142.000005 -25.9362,-34.31117 -65.618,-54.00117 -108.1018,-56.91053 -25.74638,-1.76312 -52.18839,-0.0895 -77.99999,-0.0895 h -153 -107 c -17.9721,0 -37.1812,-1.91638 -55.00002,0.42438 M 817.60871,385.65216 h 2 l 26.5756,-47.99999 56.4252,-98.99999 20.5779,-36 9.6342,-14.97223 20.7871,-1.02777 h 49.99999 v 215.99998 69 l 1,39 -24.99999,1 h -47 V 312.65217 h -1 c -17.7823,42.71089 -46.6356,82.32027 -68.6914,122.99999 -5.6284,10.38122 -11.4149,20.68908 -17.1705,31 -1.9766,3.54092 -4.4031,9.69714 -8.348,11.3966 -7.6298,3.28696 -21.5102,0.60392 -29.7901,0.6034 -3.2736,-2.2e-4 -7.6952,0.72348 -10.3657,-1.6034 -3.8972,-3.39566 -6.1128,-9.95962 -8.6343,-14.3966 l -19.2809,-34 c -14.9413,-26.28302 -29.8519,-52.60053 -44.5795,-79 -6.5697,-11.77651 -16.0733,-24.14996 -20.1396,-36.99999 h -1 v 198.99999 h -72 V 186.65218 h 52 c 5.3981,0 15.8119,-1.99408 20.4707,1.02777 4.3482,2.82049 7.0075,10.58435 9.5293,14.97223 7.0786,12.31671 14.1082,24.66244 21.1504,37 18.6719,32.71202 37.3661,65.42107 56.274,97.99999 8.6319,14.87306 21.7263,31.5143 26.5756,47.99999 z"
       id="path11" />
  </g>
</svg>
