<?xml version="1.0" encoding="UTF-8" standalone="no"?>
<!-- Created with Inkscape (http://www.inkscape.org/) -->

<svg
   version="1.1"
   id="svg1"
   width="1408"
   height="768"
   viewBox="0 0 1408 768"
   xmlns="http://www.w3.org/2000/svg"
   xmlns:svg="http://www.w3.org/2000/svg">
  <defs
     id="defs1" />
  <g
     id="g1">
    <path
       style="fill:#1a3656;stroke:none"
       d="m 521.03781,242.73725 v 62 c -26.36212,-24.06091 -72.42499,-17.12097 -93.23996,11 -17.5188,23.66785 -16.78995,60.60324 0.75385,84 6.63464,8.84811 15.4291,15.18671 25.48611,19.6875 10.24225,4.58368 22.96558,5.95239 34,4.59723 14.06622,-1.72751 24.80231,-6.17252 35,-16.28473 0,17.14035 3.71692,12.77393 18,14.28937 4.46484,0.47372 17.94556,3.41186 19.68213,-2.4375 4.60504,-15.51114 0.31787,-38.62332 0.31787,-54.85187 v -122 h -40 m 338,1 v 178 c 4.87012,0 17.77753,3.24454 18.85187,-3.05862 4.88782,-28.67722 -9.57538,-65.9274 6.85876,-91.94138 18.41522,-29.14984 62.68488,-19.34283 66.11884,15 1.1192,11.19327 1.17126,22.74316 1.17053,34 -9.8e-4,14.43954 1.60626,31.96182 -1,46 l 19,1 v -61 c 0,-15.04153 0.79974,-29.88962 -5.43982,-44 -15.63501,-35.3577 -65.02631,-29.58096 -86.56018,-5 v -69 h -19 m -821.000003,6 v 173 h 41.000002 l 1,-34 v -69 h 1 c 8.16485,22.43668 23.324171,43.98447 34.691361,65 3.15265,5.82858 7.41562,19.50592 13.6875,22.39661 4.11475,1.89648 20.32053,2.22451 23.65509,-1 6.87019,-6.6435 11.26387,-19.95838 15.74614,-28.39661 10.07039,-18.95834 25.27893,-39.37747 31.21991,-60 h 1 v 70 l 1,35 41,-1 v -172 h -33 l -13.47067,1.02777 -15.39044,26.97223 -40.13889,75 -41.575621,-76 -14.81481,-25.97223 -13.609572,-1.02777 h -33 m 334.000003,130 h -1 c -21.10052,20.65109 -58.54364,18.70804 -69,-12 h 72 c 5.94757,0 21.53821,2.79065 26.25772,-1.02777 6.45136,-5.21964 -0.0148,-27.65183 -2.31174,-33.97223 -11.59802,-31.91324 -41.23074,-43.36179 -72.94598,-41.96063 -63.86118,2.82135 -86.79919,92.26816 -30,123.64813 22.35834,12.35236 51.2836,13.32739 75,4.24768 5.90057,-2.259 21.79321,-9.30575 21.79321,-16.93518 0,-6.71344 -15.22909,-17.43588 -19.79321,-22 m 218,12 c -1.66876,3.87265 -6.71619,9.55988 -6.00623,13.90973 1.15796,7.09476 16.18659,12.01782 22.00623,14.01157 21.34967,7.31417 56.55737,7.38598 71.21063,-12.92515 3.52851,-4.89089 5.47742,-10.99169 5.75,-16.99615 0.22949,-5.05499 0.0895,-10.13211 -1.40356,-15 -6.56427,-21.4025 -34.53784,-22.36862 -52.55707,-26.87344 -7.06006,-1.76502 -15.85211,-3.83838 -20.29706,-10.16977 -7.72687,-11.00611 2.54138,-23.81406 13.29706,-27.1821 19.49701,-6.10532 33.13025,4.13101 50,11.22531 1.60406,-3.85275 6.90997,-10.65906 5.58179,-14.89581 -2.00257,-6.38788 -15.8609,-10.15509 -21.58179,-11.6258 -20.97131,-5.39123 -52.72223,-3.83395 -64.65125,17.52237 -2.53759,4.54303 -3.90454,9.8194 -4.25927,14.99924 -0.27948,4.08044 0.17853,8.08405 1.35034,12 10.20435,34.10034 55.45172,15.69345 73.13037,39.01465 8.75909,11.55478 -3.33453,24.46503 -14.57019,27.31946 -23.25983,5.90918 -36.98499,-6.63514 -57,-14.33411 m 136,-75 h -1 v -22 h -18 l -0.79089,127 -0.20911,47 1,1 19,-1 v -68 c 9.77747,12.83267 22.22803,19.95154 38,22.40973 11.97729,1.86676 25.13409,0.0525 36,-5.3804 39.19238,-19.59619 47.20953,-83.5279 11.99921,-111.36035 -23.91046,-18.90036 -70.01233,-20.48633 -85.99921,10.33102 m 380.00009,86 v -1 l -10,-11 h -1 c -18.8696,18.7113 -50.9614,24.2807 -70.6999,2.90973 -8.3241,-9.01257 -9.9239,-18.79862 -13.3002,-29.90973 h 102.0001 c 0,-20.62683 -3.1572,-41.05307 -19.0039,-55.90973 -27.74,-26.00696 -78.787,-17.52258 -94.55723,17.90973 -9.946,22.34668 -9.9389,51.36465 4.33493,72 23.6979,34.25943 75.0162,33.27283 102.2262,5 m 51,-87 h -1 v -21 h -19 v 86 l 1,42 18,-1 c 0,-10.27954 1.1227,-20.81134 0.8711,-31 -0.6603,-26.7453 -6.0139,-68.00751 27.1289,-78.22607 5.5868,-1.72254 11.219,-1.77393 17,-1.77393 0,-3.83392 2.1199,-13.37067 -0.067,-16.39661 -2.3667,-3.27453 -9.7366,-1.0816 -12.9329,-0.51928 -12.5082,2.2005 -26.1774,9.46698 -31,21.91589 m 166,87 v -1 l -9,-11 c -9.926,4.54669 -16.8394,12.84241 -28,15.49692 -27.9906,6.65744 -55.7539,-13.55692 -57.0001,-42.49692 h 101 c 0,-20.58496 -2.3212,-40.69174 -18.0895,-55.82639 -27.7936,-26.67672 -79.0239,-17.11599 -95.01,17.82639 -9.4354,20.6239 -10.0289,48.02298 1.564,68 15.7657,27.16772 51.8667,36.78113 80.5355,25.93442 9.7393,-3.68479 16.7338,-9.66898 24,-16.93442 M 766.03781,309.02354 c 56.91125,-6.99305 67.83789,89.54675 13,97.54394 -61.88812,9.02536 -73.40564,-90.12152 -13,-97.54394 m 329.00009,40.71371 h -83.0001 c 1.1124,-53.62598 80.7047,-53.30719 83.0001,0 m 217,0 h -83 c 2.3199,-53.20618 82.5554,-53.70825 83,0 m -156,-34 -1,1 1,-1 m -793.00009,29 h -61 c 4.86093,-32.42859 58.01758,-33.94556 61,0 m 119,-22.69986 c 43.59851,-6.28516 54.19714,64.16663 12,70.39893 -43.65985,6.44833 -54.40634,-64.28565 -12,-70.39893 z"
       id="path1" />
  </g>
</svg>
